<?xml version="1.0" encoding="us-ascii" standalone="no"?><svg xmlns="http://www.w3.org/2000/svg" xmlns:xlink="http://www.w3.org/1999/xlink" contentStyleType="text/css" height="414px" preserveAspectRatio="none" style="width:717px;height:414px;background:#FFFFFF;" version="1.1" viewBox="0 0 717 414" width="717px" zoomAndPan="magnify"><defs/><g><g id="elem_UserCommonTaskMapper"><rect codeLine="2" fill="#F1F1F1" height="145.7813" id="UserCommonTaskMapper" rx="2.5" ry="2.5" style="stroke:#181818;stroke-width:0.5;" width="269" x="9.5" y="23"/><ellipse cx="50.15" cy="39" fill="#ADD1B2" rx="11" ry="11" style="stroke:#181818;stroke-width:1.0;"/><path d="M53.1188,44.6406 Q52.5406,44.9375 51.9,45.0781 Q51.2594,45.2344 50.5563,45.2344 Q48.0563,45.2344 46.7281,43.5938 Q45.4156,41.9375 45.4156,38.8125 Q45.4156,35.6875 46.7281,34.0313 Q48.0563,32.375 50.5563,32.375 Q51.2594,32.375 51.9,32.5313 Q52.5563,32.6875 53.1188,32.9844 L53.1188,35.7031 Q52.4938,35.125 51.9,34.8594 Q51.3063,34.5781 50.6813,34.5781 Q49.3375,34.5781 48.65,35.6563 Q47.9625,36.7188 47.9625,38.8125 Q47.9625,40.9063 48.65,41.9844 Q49.3375,43.0469 50.6813,43.0469 Q51.3063,43.0469 51.9,42.7813 Q52.4938,42.5 53.1188,41.9219 L53.1188,44.6406 Z " fill="#000000"/><text fill="#000000" font-family="sans-serif" font-size="14" lengthAdjust="spacing" textLength="180" x="69.85" y="43.8467">UserCommonTaskMapper</text><line style="stroke:#181818;stroke-width:0.5;" x1="10.5" x2="277.5" y1="55" y2="55"/><polygon fill="none" points="20.5,63.6484,24.5,67.6484,20.5,71.6484,16.5,67.6484" style="stroke:#B38D22;stroke-width:1.0;"/><text fill="#000000" font-family="sans-serif" font-size="14" lengthAdjust="spacing" textLength="16" x="29.5" y="71.9951">id,</text><polygon fill="none" points="20.5,79.9453,24.5,83.9453,20.5,87.9453,16.5,83.9453" style="stroke:#B38D22;stroke-width:1.0;"/><text fill="#000000" font-family="sans-serif" font-size="14" lengthAdjust="spacing" textLength="65" x="29.5" y="88.292">havanaId,</text><polygon fill="none" points="20.5,96.2422,24.5,100.2422,20.5,104.2422,16.5,100.2422" style="stroke:#B38D22;stroke-width:1.0;"/><text fill="#000000" font-family="sans-serif" font-size="14" lengthAdjust="spacing" textLength="67" x="29.5" y="104.5889">taskType,</text><polygon fill="none" points="20.5,112.5391,24.5,116.5391,20.5,120.5391,16.5,116.5391" style="stroke:#B38D22;stroke-width:1.0;"/><text fill="#000000" font-family="sans-serif" font-size="14" lengthAdjust="spacing" textLength="47" x="29.5" y="120.8857">status,</text><polygon fill="none" points="20.5,128.8359,24.5,132.8359,20.5,136.8359,16.5,132.8359" style="stroke:#B38D22;stroke-width:1.0;"/><text fill="#000000" font-family="sans-serif" font-size="14" lengthAdjust="spacing" textLength="118" x="29.5" y="137.1826">totalProcessNum</text><line style="stroke:#181818;stroke-width:0.5;" x1="10.5" x2="277.5" y1="144.4844" y2="144.4844"/><ellipse cx="20.5" cy="158.1328" fill="#84BE84" rx="3" ry="3" style="stroke:#038048;stroke-width:1.0;"/><text fill="#000000" font-family="sans-serif" font-size="14" lengthAdjust="spacing" textLength="243" x="29.5" y="161.4795">user_common_task(&#36830;&#32493;&#31614;&#21040;&#20219;&#21153;&#34920;)</text></g><g id="elem_UserCommonTaskAwardRecordMapper"><rect codeLine="11" fill="#F1F1F1" height="178.375" id="UserCommonTaskAwardRecordMapper" rx="2.5" ry="2.5" style="stroke:#181818;stroke-width:0.5;" width="397" x="313.5" y="7"/><ellipse cx="371.75" cy="23" fill="#ADD1B2" rx="11" ry="11" style="stroke:#181818;stroke-width:1.0;"/><path d="M374.7188,28.6406 Q374.1406,28.9375 373.5,29.0781 Q372.8594,29.2344 372.1563,29.2344 Q369.6563,29.2344 368.3281,27.5938 Q367.0156,25.9375 367.0156,22.8125 Q367.0156,19.6875 368.3281,18.0313 Q369.6563,16.375 372.1563,16.375 Q372.8594,16.375 373.5,16.5313 Q374.1563,16.6875 374.7188,16.9844 L374.7188,19.7031 Q374.0938,19.125 373.5,18.8594 Q372.9063,18.5781 372.2813,18.5781 Q370.9375,18.5781 370.25,19.6563 Q369.5625,20.7188 369.5625,22.8125 Q369.5625,24.9063 370.25,25.9844 Q370.9375,27.0469 372.2813,27.0469 Q372.9063,27.0469 373.5,26.7813 Q374.0938,26.5 374.7188,25.9219 L374.7188,28.6406 Z " fill="#000000"/><text fill="#000000" font-family="sans-serif" font-size="14" lengthAdjust="spacing" textLength="272" x="392.25" y="27.8467">UserCommonTaskAwardRecordMapper</text><line style="stroke:#181818;stroke-width:0.5;" x1="314.5" x2="709.5" y1="39" y2="39"/><polygon fill="none" points="324.5,47.6484,328.5,51.6484,324.5,55.6484,320.5,51.6484" style="stroke:#B38D22;stroke-width:1.0;"/><text fill="#000000" font-family="sans-serif" font-size="14" lengthAdjust="spacing" textLength="16" x="333.5" y="55.9951">id,</text><polygon fill="none" points="324.5,63.9453,328.5,67.9453,324.5,71.9453,320.5,67.9453" style="stroke:#B38D22;stroke-width:1.0;"/><text fill="#000000" font-family="sans-serif" font-size="14" lengthAdjust="spacing" textLength="65" x="333.5" y="72.292">havanaId,</text><polygon fill="none" points="324.5,80.2422,328.5,84.2422,324.5,88.2422,320.5,84.2422" style="stroke:#B38D22;stroke-width:1.0;"/><text fill="#000000" font-family="sans-serif" font-size="14" lengthAdjust="spacing" textLength="79" x="333.5" y="88.5889">awardType,</text><polygon fill="none" points="324.5,96.5391,328.5,100.5391,324.5,104.5391,320.5,100.5391" style="stroke:#B38D22;stroke-width:1.0;"/><text fill="#000000" font-family="sans-serif" font-size="14" lengthAdjust="spacing" textLength="87" x="333.5" y="104.8857">awardCount,</text><polygon fill="none" points="324.5,112.8359,328.5,116.8359,324.5,120.8359,320.5,116.8359" style="stroke:#B38D22;stroke-width:1.0;"/><text fill="#000000" font-family="sans-serif" font-size="14" lengthAdjust="spacing" textLength="45" x="333.5" y="121.1826">taskId,</text><polygon fill="none" points="324.5,129.1328,328.5,133.1328,324.5,137.1328,320.5,133.1328" style="stroke:#B38D22;stroke-width:1.0;"/><text fill="#000000" font-family="sans-serif" font-size="14" lengthAdjust="spacing" textLength="99" x="333.5" y="137.4795">proceedIndex,</text><polygon fill="none" points="324.5,145.4297,328.5,149.4297,324.5,153.4297,320.5,149.4297" style="stroke:#B38D22;stroke-width:1.0;"/><text fill="#000000" font-family="sans-serif" font-size="14" lengthAdjust="spacing" textLength="128" x="333.5" y="153.7764">receiveTimeStamp</text><line style="stroke:#181818;stroke-width:0.5;" x1="314.5" x2="709.5" y1="161.0781" y2="161.0781"/><ellipse cx="324.5" cy="174.7266" fill="#84BE84" rx="3" ry="3" style="stroke:#038048;stroke-width:1.0;"/><text fill="#000000" font-family="sans-serif" font-size="14" lengthAdjust="spacing" textLength="371" x="333.5" y="178.0732">user_common_task_award_record(&#36830;&#32493;&#31614;&#21040;&#22870;&#21169;&#37197;&#32622;&#34920;)</text></g><g id="elem_UserCommonTaskProceedMapper"><rect codeLine="22" fill="#F1F1F1" height="162.0781" id="UserCommonTaskProceedMapper" rx="2.5" ry="2.5" style="stroke:#181818;stroke-width:0.5;" width="270" x="9" y="245"/><ellipse cx="24" cy="261" fill="#ADD1B2" rx="11" ry="11" style="stroke:#181818;stroke-width:1.0;"/><path d="M26.9688,266.6406 Q26.3906,266.9375 25.75,267.0781 Q25.1094,267.2344 24.4063,267.2344 Q21.9063,267.2344 20.5781,265.5938 Q19.2656,263.9375 19.2656,260.8125 Q19.2656,257.6875 20.5781,256.0313 Q21.9063,254.375 24.4063,254.375 Q25.1094,254.375 25.75,254.5313 Q26.4063,254.6875 26.9688,254.9844 L26.9688,257.7031 Q26.3438,257.125 25.75,256.8594 Q25.1563,256.5781 24.5313,256.5781 Q23.1875,256.5781 22.5,257.6563 Q21.8125,258.7188 21.8125,260.8125 Q21.8125,262.9063 22.5,263.9844 Q23.1875,265.0469 24.5313,265.0469 Q25.1563,265.0469 25.75,264.7813 Q26.3438,264.5 26.9688,263.9219 L26.9688,266.6406 Z " fill="#000000"/><text fill="#000000" font-family="sans-serif" font-size="14" lengthAdjust="spacing" textLength="238" x="38" y="265.8467">UserCommonTaskProceedMapper</text><line style="stroke:#181818;stroke-width:0.5;" x1="10" x2="278" y1="277" y2="277"/><polygon fill="none" points="20,285.6484,24,289.6484,20,293.6484,16,289.6484" style="stroke:#B38D22;stroke-width:1.0;"/><text fill="#000000" font-family="sans-serif" font-size="14" lengthAdjust="spacing" textLength="16" x="29" y="293.9951">id,</text><polygon fill="none" points="20,301.9453,24,305.9453,20,309.9453,16,305.9453" style="stroke:#B38D22;stroke-width:1.0;"/><text fill="#000000" font-family="sans-serif" font-size="14" lengthAdjust="spacing" textLength="77" x="29" y="310.292">gmtCreate,</text><polygon fill="none" points="20,318.2422,24,322.2422,20,326.2422,16,322.2422" style="stroke:#B38D22;stroke-width:1.0;"/><text fill="#000000" font-family="sans-serif" font-size="14" lengthAdjust="spacing" textLength="75" x="29" y="326.5889">gmtModify,</text><polygon fill="none" points="20,334.5391,24,338.5391,20,342.5391,16,338.5391" style="stroke:#B38D22;stroke-width:1.0;"/><text fill="#000000" font-family="sans-serif" font-size="14" lengthAdjust="spacing" textLength="65" x="29" y="342.8857">havanaId,</text><polygon fill="none" points="20,350.8359,24,354.8359,20,358.8359,16,354.8359" style="stroke:#B38D22;stroke-width:1.0;"/><text fill="#000000" font-family="sans-serif" font-size="14" lengthAdjust="spacing" textLength="45" x="29" y="359.1826">taskId,</text><polygon fill="none" points="20,367.1328,24,371.1328,20,375.1328,16,371.1328" style="stroke:#B38D22;stroke-width:1.0;"/><text fill="#000000" font-family="sans-serif" font-size="14" lengthAdjust="spacing" textLength="43" x="29" y="375.4795">status</text><line style="stroke:#181818;stroke-width:0.5;" x1="10" x2="278" y1="382.7813" y2="382.7813"/><ellipse cx="20" cy="396.4297" fill="#84BE84" rx="3" ry="3" style="stroke:#038048;stroke-width:1.0;"/><text fill="#000000" font-family="sans-serif" font-size="14" lengthAdjust="spacing" textLength="212" x="29" y="399.7764">user_task_proceed(&#20219;&#21153;&#36827;&#24230;&#34920;)</text></g><g id="elem_UserSignInCalendarMapper"><rect codeLine="32" fill="#F1F1F1" height="145.7813" id="UserSignInCalendarMapper" rx="2.5" ry="2.5" style="stroke:#181818;stroke-width:0.5;" width="348" x="314" y="253"/><ellipse cx="390.25" cy="269" fill="#ADD1B2" rx="11" ry="11" style="stroke:#181818;stroke-width:1.0;"/><path d="M393.2188,274.6406 Q392.6406,274.9375 392,275.0781 Q391.3594,275.2344 390.6563,275.2344 Q388.1563,275.2344 386.8281,273.5938 Q385.5156,271.9375 385.5156,268.8125 Q385.5156,265.6875 386.8281,264.0313 Q388.1563,262.375 390.6563,262.375 Q391.3594,262.375 392,262.5313 Q392.6563,262.6875 393.2188,262.9844 L393.2188,265.7031 Q392.5938,265.125 392,264.8594 Q391.4063,264.5781 390.7813,264.5781 Q389.4375,264.5781 388.75,265.6563 Q388.0625,266.7188 388.0625,268.8125 Q388.0625,270.9063 388.75,271.9844 Q389.4375,273.0469 390.7813,273.0469 Q391.4063,273.0469 392,272.7813 Q392.5938,272.5 393.2188,271.9219 L393.2188,274.6406 Z " fill="#000000"/><text fill="#000000" font-family="sans-serif" font-size="14" lengthAdjust="spacing" textLength="187" x="410.75" y="273.8467">UserSignInCalendarMapper</text><line style="stroke:#181818;stroke-width:0.5;" x1="315" x2="661" y1="285" y2="285"/><polygon fill="none" points="325,293.6484,329,297.6484,325,301.6484,321,297.6484" style="stroke:#B38D22;stroke-width:1.0;"/><text fill="#000000" font-family="sans-serif" font-size="14" lengthAdjust="spacing" textLength="16" x="334" y="301.9951">id,</text><polygon fill="none" points="325,309.9453,329,313.9453,325,317.9453,321,313.9453" style="stroke:#B38D22;stroke-width:1.0;"/><text fill="#000000" font-family="sans-serif" font-size="14" lengthAdjust="spacing" textLength="65" x="334" y="318.292">havanaId,</text><polygon fill="none" points="325,326.2422,329,330.2422,325,334.2422,321,330.2422" style="stroke:#B38D22;stroke-width:1.0;"/><text fill="#000000" font-family="sans-serif" font-size="14" lengthAdjust="spacing" textLength="33" x="334" y="334.5889">year,</text><polygon fill="none" points="325,342.5391,329,346.5391,325,350.5391,321,346.5391" style="stroke:#B38D22;stroke-width:1.0;"/><text fill="#000000" font-family="sans-serif" font-size="14" lengthAdjust="spacing" textLength="49" x="334" y="350.8857">month,</text><polygon fill="none" points="325,358.8359,329,362.8359,325,366.8359,321,362.8359" style="stroke:#B38D22;stroke-width:1.0;"/><text fill="#000000" font-family="sans-serif" font-size="14" lengthAdjust="spacing" textLength="80" x="334" y="367.1826">signInDetail</text><line style="stroke:#181818;stroke-width:0.5;" x1="315" x2="661" y1="374.4844" y2="374.4844"/><ellipse cx="325" cy="388.1328" fill="#84BE84" rx="3" ry="3" style="stroke:#038048;stroke-width:1.0;"/><text fill="#000000" font-family="sans-serif" font-size="14" lengthAdjust="spacing" textLength="322" x="334" y="391.4795">campus_user_sign_in_calendar(&#26376;&#24230;&#26085;&#21382;&#31614;&#21040;&#34920;)</text></g></g></svg>