<?xml version="1.0" encoding="us-ascii" standalone="no"?><svg xmlns="http://www.w3.org/2000/svg" xmlns:xlink="http://www.w3.org/1999/xlink" contentStyleType="text/css" height="1102px" preserveAspectRatio="none" style="width:3343px;height:1102px;background:#FFFFFF;" version="1.1" viewBox="0 0 3343 1102" width="3343px" zoomAndPan="magnify"><defs/><g><line style="stroke:#181818;stroke-width:0.5;stroke-dasharray:5.0,5.0;" x1="26" x2="26" y1="36.2969" y2="1067.0156"/><line style="stroke:#181818;stroke-width:0.5;stroke-dasharray:5.0,5.0;" x1="568" x2="568" y1="36.2969" y2="1067.0156"/><line style="stroke:#181818;stroke-width:0.5;stroke-dasharray:5.0,5.0;" x1="1103" x2="1103" y1="36.2969" y2="1067.0156"/><line style="stroke:#181818;stroke-width:0.5;stroke-dasharray:5.0,5.0;" x1="1850.5" x2="1850.5" y1="36.2969" y2="1067.0156"/><line style="stroke:#181818;stroke-width:0.5;stroke-dasharray:5.0,5.0;" x1="2784" x2="2784" y1="36.2969" y2="1067.0156"/><rect fill="#E2E2F0" height="30.2969" rx="2.5" ry="2.5" style="stroke:#181818;stroke-width:0.5;" width="42" x="5" y="5"/><text fill="#000000" font-family="sans-serif" font-size="14" lengthAdjust="spacing" textLength="28" x="12" y="24.9951">&#21069;&#31471;</text><rect fill="#E2E2F0" height="30.2969" rx="2.5" ry="2.5" style="stroke:#181818;stroke-width:0.5;" width="42" x="5" y="1066.0156"/><text fill="#000000" font-family="sans-serif" font-size="14" lengthAdjust="spacing" textLength="28" x="12" y="1086.0107">&#21069;&#31471;</text><rect fill="#E2E2F0" height="30.2969" rx="2.5" ry="2.5" style="stroke:#181818;stroke-width:0.5;" width="244" x="446" y="5"/><text fill="#000000" font-family="sans-serif" font-size="14" lengthAdjust="spacing" textLength="230" x="453" y="24.9951">&#21069;&#32622;&#21028;&#26029;&#65306;SignInTaskMtopService</text><rect fill="#E2E2F0" height="30.2969" rx="2.5" ry="2.5" style="stroke:#181818;stroke-width:0.5;" width="244" x="446" y="1066.0156"/><text fill="#000000" font-family="sans-serif" font-size="14" lengthAdjust="spacing" textLength="230" x="453" y="1086.0107">&#21069;&#32622;&#21028;&#26029;&#65306;SignInTaskMtopService</text><rect fill="#E2E2F0" height="30.2969" rx="2.5" ry="2.5" style="stroke:#181818;stroke-width:0.5;" width="234" x="986" y="5"/><text fill="#000000" font-family="sans-serif" font-size="14" lengthAdjust="spacing" textLength="220" x="993" y="24.9951">&#31614;&#21040;&#20219;&#21153;&#65306;SignInTaskApplication</text><rect fill="#E2E2F0" height="30.2969" rx="2.5" ry="2.5" style="stroke:#181818;stroke-width:0.5;" width="234" x="986" y="1066.0156"/><text fill="#000000" font-family="sans-serif" font-size="14" lengthAdjust="spacing" textLength="220" x="993" y="1086.0107">&#31614;&#21040;&#20219;&#21153;&#65306;SignInTaskApplication</text><rect fill="#E2E2F0" height="30.2969" rx="2.5" ry="2.5" style="stroke:#181818;stroke-width:0.5;" width="283" x="1709.5" y="5"/><text fill="#000000" font-family="sans-serif" font-size="14" lengthAdjust="spacing" textLength="269" x="1716.5" y="24.9951">&#36830;&#32493;&#31614;&#21040;&#65306;CommonTaskDomainService</text><rect fill="#E2E2F0" height="30.2969" rx="2.5" ry="2.5" style="stroke:#181818;stroke-width:0.5;" width="283" x="1709.5" y="1066.0156"/><text fill="#000000" font-family="sans-serif" font-size="14" lengthAdjust="spacing" textLength="269" x="1716.5" y="1086.0107">&#36830;&#32493;&#31614;&#21040;&#65306;CommonTaskDomainService</text><rect fill="#E2E2F0" height="30.2969" rx="2.5" ry="2.5" style="stroke:#181818;stroke-width:0.5;" width="72" x="2748" y="5"/><text fill="#000000" font-family="sans-serif" font-size="14" lengthAdjust="spacing" textLength="58" x="2755" y="24.9951">member</text><rect fill="#E2E2F0" height="30.2969" rx="2.5" ry="2.5" style="stroke:#181818;stroke-width:0.5;" width="72" x="2748" y="1066.0156"/><text fill="#000000" font-family="sans-serif" font-size="14" lengthAdjust="spacing" textLength="58" x="2755" y="1086.0107">member</text><polygon fill="#181818" points="556,63.4297,566,67.4297,556,71.4297,560,67.4297" style="stroke:#181818;stroke-width:1.0;"/><line style="stroke:#181818;stroke-width:1.0;" x1="26" x2="562" y1="67.4297" y2="67.4297"/><text fill="#000000" font-family="sans-serif" font-size="13" font-weight="bold" lengthAdjust="spacing" textLength="9" x="33" y="62.3638">1</text><text fill="#000000" font-family="sans-serif" font-size="13" lengthAdjust="spacing" textLength="505" x="46" y="62.3638">&#65288;tid&#20174;&#33719;&#21462;&#31614;&#21040;&#39029;&#38754;&#38142;&#36335;&#33719;&#21462;&#65289;&#28857;&#20987;&#31614;&#21040;&#65292;&#20256;&#20837;havanaId&#12289;signInDate&#12289;signInTaskId</text><polygon fill="#181818" points="37,92.5625,27,96.5625,37,100.5625,33,96.5625" style="stroke:#181818;stroke-width:1.0;"/><line style="stroke:#181818;stroke-width:1.0;" x1="31" x2="567" y1="96.5625" y2="96.5625"/><text fill="#000000" font-family="sans-serif" font-size="13" font-weight="bold" lengthAdjust="spacing" textLength="9" x="43" y="91.4966">2</text><text fill="#000000" font-family="sans-serif" font-size="13" lengthAdjust="spacing" textLength="415" x="56" y="91.4966">&#21028;&#26029;havanaId&#12289;signInTask,&#33509;&#31354;&#20540;&#25243;&#20986;&#21442;&#25968;&#24322;&#24120;("CE003", "&#21442;&#25968;&#24322;&#24120;")</text><line style="stroke:#181818;stroke-width:1.0;" x1="568" x2="610" y1="125.6953" y2="125.6953"/><line style="stroke:#181818;stroke-width:1.0;" x1="610" x2="610" y1="125.6953" y2="138.6953"/><line style="stroke:#181818;stroke-width:1.0;" x1="569" x2="610" y1="138.6953" y2="138.6953"/><polygon fill="#181818" points="579,134.6953,569,138.6953,579,142.6953,575,138.6953" style="stroke:#181818;stroke-width:1.0;"/><text fill="#000000" font-family="sans-serif" font-size="13" font-weight="bold" lengthAdjust="spacing" textLength="9" x="575" y="120.6294">3</text><text fill="#000000" font-family="sans-serif" font-size="13" lengthAdjust="spacing" textLength="394" x="588" y="120.6294">&#26681;&#25454;userSignInKey(xxx+hid+date)&#24130;&#31561;&#38190;&#21028;&#26029;&#26159;&#21542;&#24050;&#31614;&#65292;&#23384;&#22312;tair</text><polygon fill="#181818" points="37,163.8281,27,167.8281,37,171.8281,33,167.8281" style="stroke:#181818;stroke-width:1.0;"/><line style="stroke:#181818;stroke-width:1.0;" x1="31" x2="567" y1="167.8281" y2="167.8281"/><text fill="#000000" font-family="sans-serif" font-size="13" font-weight="bold" lengthAdjust="spacing" textLength="9" x="43" y="162.7622">4</text><text fill="#000000" font-family="sans-serif" font-size="13" lengthAdjust="spacing" textLength="194" x="56" y="162.7622">&#24050;&#31614;&#21040;&#36820;&#22238;signInSuccess&#65306;true</text><polygon fill="#181818" points="1091,192.9609,1101,196.9609,1091,200.9609,1095,196.9609" style="stroke:#181818;stroke-width:1.0;"/><line style="stroke:#181818;stroke-width:1.0;" x1="568" x2="1097" y1="196.9609" y2="196.9609"/><text fill="#000000" font-family="sans-serif" font-size="13" font-weight="bold" lengthAdjust="spacing" textLength="9" x="575" y="191.895">5</text><text fill="#000000" font-family="sans-serif" font-size="13" lengthAdjust="spacing" textLength="158" x="588" y="191.895">&#20256;&#20837;Id&#12289;date&#12289;signInTask</text><line style="stroke:#181818;stroke-width:1.0;" x1="1103" x2="1145" y1="226.0938" y2="226.0938"/><line style="stroke:#181818;stroke-width:1.0;" x1="1145" x2="1145" y1="226.0938" y2="239.0938"/><line style="stroke:#181818;stroke-width:1.0;" x1="1104" x2="1145" y1="239.0938" y2="239.0938"/><polygon fill="#181818" points="1114,235.0938,1104,239.0938,1114,243.0938,1110,239.0938" style="stroke:#181818;stroke-width:1.0;"/><text fill="#000000" font-family="sans-serif" font-size="13" font-weight="bold" lengthAdjust="spacing" textLength="9" x="1110" y="221.0278">6</text><text fill="#000000" font-family="sans-serif" font-size="13" lengthAdjust="spacing" textLength="381" x="1123" y="221.0278">&#26681;&#25454;id&#12289;date.month&#33719;&#21462;&#24403;&#26376;&#31614;&#21040;&#26085;&#21382;&#65288;&#33509;&#35813;&#26376;&#27809;&#31614;&#21040;&#36807;&#20026;null&#65289;</text><line style="stroke:#181818;stroke-width:1.0;" x1="1103" x2="1145" y1="268.2266" y2="268.2266"/><line style="stroke:#181818;stroke-width:1.0;" x1="1145" x2="1145" y1="268.2266" y2="281.2266"/><line style="stroke:#181818;stroke-width:1.0;" x1="1104" x2="1145" y1="281.2266" y2="281.2266"/><polygon fill="#181818" points="1114,277.2266,1104,281.2266,1114,285.2266,1110,281.2266" style="stroke:#181818;stroke-width:1.0;"/><text fill="#000000" font-family="sans-serif" font-size="13" font-weight="bold" lengthAdjust="spacing" textLength="9" x="1110" y="263.1606">7</text><text fill="#000000" font-family="sans-serif" font-size="13" lengthAdjust="spacing" textLength="481" x="1123" y="263.1606">&#24403;&#26376;&#31532;&#19968;&#27425;&#31614;-firstSignIn-&#21019;&#24314;&#31614;&#21040;&#26085;&#21382;-&#24180;&#12289;&#26376;&#12289;&#31614;&#21040;&#35814;&#24773;&#65288;&#20108;&#36827;&#21046;&#20301;&#65289;&#65292;&#31614;&#21040;&#36923;&#36753;</text><line style="stroke:#181818;stroke-width:1.0;" x1="1103" x2="1145" y1="310.3594" y2="310.3594"/><line style="stroke:#181818;stroke-width:1.0;" x1="1145" x2="1145" y1="310.3594" y2="323.3594"/><line style="stroke:#181818;stroke-width:1.0;" x1="1104" x2="1145" y1="323.3594" y2="323.3594"/><polygon fill="#181818" points="1114,319.3594,1104,323.3594,1114,327.3594,1110,323.3594" style="stroke:#181818;stroke-width:1.0;"/><text fill="#000000" font-family="sans-serif" font-size="13" font-weight="bold" lengthAdjust="spacing" textLength="9" x="1110" y="305.2935">8</text><text fill="#000000" font-family="sans-serif" font-size="13" lengthAdjust="spacing" textLength="293" x="1123" y="305.2935">&#31614;&#21040;&#36923;&#36753;--&#26681;&#25454;&#24403;&#21069;day&#20462;&#25913;&#31614;&#21040;&#35814;&#24773;&#65288;&#20108;&#36827;&#21046;&#20301;&#65289;</text><line style="stroke:#181818;stroke-width:1.0;" x1="1103" x2="1145" y1="352.4922" y2="352.4922"/><line style="stroke:#181818;stroke-width:1.0;" x1="1145" x2="1145" y1="352.4922" y2="365.4922"/><line style="stroke:#181818;stroke-width:1.0;" x1="1104" x2="1145" y1="365.4922" y2="365.4922"/><polygon fill="#181818" points="1114,361.4922,1104,365.4922,1114,369.4922,1110,365.4922" style="stroke:#181818;stroke-width:1.0;"/><text fill="#000000" font-family="sans-serif" font-size="13" font-weight="bold" lengthAdjust="spacing" textLength="9" x="1110" y="347.4263">9</text><text fill="#000000" font-family="sans-serif" font-size="13" lengthAdjust="spacing" textLength="292" x="1123" y="347.4263">&#26681;&#25454;hid&#21644;signInTask&#26597;&#35810;&#20219;&#21153;userCommonTask</text><polygon fill="#181818" points="37,390.625,27,394.625,37,398.625,33,394.625" style="stroke:#181818;stroke-width:1.0;"/><line style="stroke:#181818;stroke-width:1.0;" x1="31" x2="1102" y1="394.625" y2="394.625"/><text fill="#000000" font-family="sans-serif" font-size="13" font-weight="bold" lengthAdjust="spacing" textLength="18" x="43" y="389.5591">10</text><text fill="#000000" font-family="sans-serif" font-size="13" lengthAdjust="spacing" textLength="390" x="65" y="389.5591">userCommonTask&#20219;&#21153;&#19981;&#23384;&#22312;&#25243;&#20986;&#21442;&#25968;&#24322;&#24120;("CE003", "&#21442;&#25968;&#24322;&#24120;")</text><polygon fill="#181818" points="1839,419.7578,1849,423.7578,1839,427.7578,1843,423.7578" style="stroke:#181818;stroke-width:1.0;"/><line style="stroke:#181818;stroke-width:1.0;" x1="1103" x2="1845" y1="423.7578" y2="423.7578"/><text fill="#000000" font-family="sans-serif" font-size="13" font-weight="bold" lengthAdjust="spacing" textLength="18" x="1110" y="418.6919">11</text><text fill="#000000" font-family="sans-serif" font-size="13" lengthAdjust="spacing" textLength="702" x="1132" y="418.6919">&#25512;&#36827;&#20219;&#21153;&#65292;&#20256;&#20837;hid&#12289;tid&#12289;&#20219;&#21153;&#23545;&#35937;(Hid&#12289;taskType&#12289;status&#12289;totalProcessNum&#20219;&#21153;&#25512;&#36827;&#24635;&#25968;)&#65292;&#33719;&#24471;&#36830;&#32493;&#31614;&#21040;&#20219;&#21153;&#32467;&#26524;</text><line style="stroke:#181818;stroke-width:1.0;" x1="1851" x2="1893" y1="452.8906" y2="452.8906"/><line style="stroke:#181818;stroke-width:1.0;" x1="1893" x2="1893" y1="452.8906" y2="465.8906"/><line style="stroke:#181818;stroke-width:1.0;" x1="1852" x2="1893" y1="465.8906" y2="465.8906"/><polygon fill="#181818" points="1862,461.8906,1852,465.8906,1862,469.8906,1858,465.8906" style="stroke:#181818;stroke-width:1.0;"/><text fill="#000000" font-family="sans-serif" font-size="13" font-weight="bold" lengthAdjust="spacing" textLength="18" x="1858" y="447.8247">12</text><text fill="#000000" font-family="sans-serif" font-size="13" lengthAdjust="spacing" textLength="469" x="1880" y="447.8247">&#26681;&#25454;hid&#12289;tid&#33719;&#21462;&#20219;&#21153;&#25512;&#36827;&#21015;&#34920;List&lt;UserCommonTaskProceed&gt;&#65292;&#27809;&#26377;&#21017;new</text><line style="stroke:#181818;stroke-width:1.0;" x1="1851" x2="1893" y1="495.0234" y2="495.0234"/><line style="stroke:#181818;stroke-width:1.0;" x1="1893" x2="1893" y1="495.0234" y2="508.0234"/><line style="stroke:#181818;stroke-width:1.0;" x1="1852" x2="1893" y1="508.0234" y2="508.0234"/><polygon fill="#181818" points="1862,504.0234,1852,508.0234,1862,512.0234,1858,508.0234" style="stroke:#181818;stroke-width:1.0;"/><text fill="#000000" font-family="sans-serif" font-size="13" font-weight="bold" lengthAdjust="spacing" textLength="18" x="1858" y="489.9575">13</text><text fill="#000000" font-family="sans-serif" font-size="13" lengthAdjust="spacing" textLength="645" x="1880" y="489.9575">&#26681;&#25454;hid&#12289;tid&#21019;&#24314;&#20219;&#21153;userCommonTaskProceed&#36827;&#24230;&#23454;&#20363;Ctime&#12289;Mtime&#12289;tid&#12289;hid&#12289;status&#65288;COMPLETE&#65289;</text><line style="stroke:#181818;stroke-width:1.0;" x1="1851" x2="1893" y1="537.1563" y2="537.1563"/><line style="stroke:#181818;stroke-width:1.0;" x1="1893" x2="1893" y1="537.1563" y2="550.1563"/><line style="stroke:#181818;stroke-width:1.0;" x1="1852" x2="1893" y1="550.1563" y2="550.1563"/><polygon fill="#181818" points="1862,546.1563,1852,550.1563,1862,554.1563,1858,550.1563" style="stroke:#181818;stroke-width:1.0;"/><text fill="#000000" font-family="sans-serif" font-size="13" font-weight="bold" lengthAdjust="spacing" textLength="18" x="1858" y="532.0903">14</text><text fill="#000000" font-family="sans-serif" font-size="13" lengthAdjust="spacing" textLength="166" x="1880" y="532.0903">insert&#20219;&#21153;&#36827;&#24230;&#23454;&#20363;&#25512;&#36827;&#20219;&#21153;</text><line style="stroke:#181818;stroke-width:1.0;" x1="1851" x2="1893" y1="579.2891" y2="579.2891"/><line style="stroke:#181818;stroke-width:1.0;" x1="1893" x2="1893" y1="579.2891" y2="592.2891"/><line style="stroke:#181818;stroke-width:1.0;" x1="1852" x2="1893" y1="592.2891" y2="592.2891"/><polygon fill="#181818" points="1862,588.2891,1852,592.2891,1862,596.2891,1858,592.2891" style="stroke:#181818;stroke-width:1.0;"/><text fill="#000000" font-family="sans-serif" font-size="13" font-weight="bold" lengthAdjust="spacing" textLength="18" x="1858" y="574.2231">15</text><text fill="#000000" font-family="sans-serif" font-size="13" lengthAdjust="spacing" textLength="501" x="1880" y="574.2231">&#26681;&#25454;&#37197;&#32622;&#24471;&#21040;&#36827;&#24230;&#22870;&#21169;&#21015;&#34920;&lt;(&#20219;&#21153;&#36827;&#24230;&#32034;&#24341;loopIdx&#12289;&#22870;&#39033;config(&#22870;&#21169;&#31867;&#22411;&#12289;&#25968;&#37327;)),..&gt;</text><line style="stroke:#181818;stroke-width:1.0;" x1="1851" x2="1893" y1="621.4219" y2="621.4219"/><line style="stroke:#181818;stroke-width:1.0;" x1="1893" x2="1893" y1="621.4219" y2="634.4219"/><line style="stroke:#181818;stroke-width:1.0;" x1="1852" x2="1893" y1="634.4219" y2="634.4219"/><polygon fill="#181818" points="1862,630.4219,1852,634.4219,1862,638.4219,1858,634.4219" style="stroke:#181818;stroke-width:1.0;"/><text fill="#000000" font-family="sans-serif" font-size="13" font-weight="bold" lengthAdjust="spacing" textLength="18" x="1858" y="616.356">16</text><text fill="#000000" font-family="sans-serif" font-size="13" lengthAdjust="spacing" textLength="405" x="1880" y="616.356">&#21028;&#26029;&#21457;&#22870;&#65306;loopIdx.equals(userCommonTaskProceedDOList.size)</text><line style="stroke:#181818;stroke-width:1.0;" x1="1851" x2="1893" y1="663.5547" y2="663.5547"/><line style="stroke:#181818;stroke-width:1.0;" x1="1893" x2="1893" y1="663.5547" y2="676.5547"/><line style="stroke:#181818;stroke-width:1.0;" x1="1852" x2="1893" y1="676.5547" y2="676.5547"/><polygon fill="#181818" points="1862,672.5547,1852,676.5547,1862,680.5547,1858,676.5547" style="stroke:#181818;stroke-width:1.0;"/><text fill="#000000" font-family="sans-serif" font-size="13" font-weight="bold" lengthAdjust="spacing" textLength="18" x="1858" y="658.4888">17</text><text fill="#000000" font-family="sans-serif" font-size="13" lengthAdjust="spacing" textLength="897" x="1880" y="658.4888">&#21457;&#22870;&#21442;&#25968;pointAddParam-hid&#12289;count&#65288;&#22870;&#21697;&#25968;&#37327;&#65289;&#12289;ruleCode&#65288;SIGN_IN_POINT_ADD&#65289;&#12289;outId&#65288;&#24130;&#31561;ID-SIGN_IN_PROCEED_PREFIX + &#20219;&#21153;&#36827;&#24230;Id&#65289;</text><polygon fill="#181818" points="2772,701.6875,2782,705.6875,2772,709.6875,2776,705.6875" style="stroke:#181818;stroke-width:1.0;"/><line style="stroke:#181818;stroke-width:1.0;" x1="1851" x2="2778" y1="705.6875" y2="705.6875"/><text fill="#000000" font-family="sans-serif" font-size="13" font-weight="bold" lengthAdjust="spacing" textLength="18" x="1858" y="700.6216">18</text><text fill="#000000" font-family="sans-serif" font-size="13" lengthAdjust="spacing" textLength="595" x="1880" y="700.6216">pointWriteFacade.addPoint(pointAddParam)---&gt;PointWriteService.addPoint(PointAddRequest)</text><line style="stroke:#181818;stroke-width:1.0;" x1="2784" x2="2826" y1="734.8203" y2="734.8203"/><line style="stroke:#181818;stroke-width:1.0;" x1="2826" x2="2826" y1="734.8203" y2="747.8203"/><line style="stroke:#181818;stroke-width:1.0;" x1="2785" x2="2826" y1="747.8203" y2="747.8203"/><polygon fill="#181818" points="2795,743.8203,2785,747.8203,2795,751.8203,2791,747.8203" style="stroke:#181818;stroke-width:1.0;"/><text fill="#000000" font-family="sans-serif" font-size="13" font-weight="bold" lengthAdjust="spacing" textLength="18" x="2791" y="729.7544">19</text><text fill="#000000" font-family="sans-serif" font-size="13" lengthAdjust="spacing" textLength="343" x="2813" y="729.7544">PointWriteService.addPoint(PointAddRequest request)</text><polygon fill="#181818" points="1862,772.9531,1852,776.9531,1862,780.9531,1858,776.9531" style="stroke:#181818;stroke-width:1.0;"/><line style="stroke:#181818;stroke-width:1.0;" x1="1856" x2="2783" y1="776.9531" y2="776.9531"/><text fill="#000000" font-family="sans-serif" font-size="13" font-weight="bold" lengthAdjust="spacing" textLength="18" x="1868" y="771.8872">20</text><text fill="#000000" font-family="sans-serif" font-size="13" lengthAdjust="spacing" textLength="312" x="1890" y="771.8872">request==null--&#25243;&#20986;&#21442;&#25968;&#24322;&#24120;("CE003", "&#21442;&#25968;&#24322;&#24120;")</text><polygon fill="#181818" points="1862,802.0859,1852,806.0859,1862,810.0859,1858,806.0859" style="stroke:#181818;stroke-width:1.0;"/><line style="stroke:#181818;stroke-width:1.0;" x1="1856" x2="2783" y1="806.0859" y2="806.0859"/><text fill="#000000" font-family="sans-serif" font-size="13" font-weight="bold" lengthAdjust="spacing" textLength="18" x="1868" y="801.02">21</text><text fill="#000000" font-family="sans-serif" font-size="13" lengthAdjust="spacing" textLength="457" x="1890" y="801.02">&#26657;&#39564;&#20250;&#21592;id&#65306;hid&#65292;&#19981;&#23384;&#22312;&#25243;&#20986;("FAIL_BIZ_USER_NOT_FIND", "&#29992;&#25143;&#24182;&#26410;&#20837;&#24211;")</text><line style="stroke:#181818;stroke-width:1.0;" x1="2784" x2="2826" y1="835.2188" y2="835.2188"/><line style="stroke:#181818;stroke-width:1.0;" x1="2826" x2="2826" y1="835.2188" y2="848.2188"/><line style="stroke:#181818;stroke-width:1.0;" x1="2785" x2="2826" y1="848.2188" y2="848.2188"/><polygon fill="#181818" points="2795,844.2188,2785,848.2188,2795,852.2188,2791,848.2188" style="stroke:#181818;stroke-width:1.0;"/><text fill="#000000" font-family="sans-serif" font-size="13" font-weight="bold" lengthAdjust="spacing" textLength="18" x="2791" y="830.1528">22</text><text fill="#000000" font-family="sans-serif" font-size="13" lengthAdjust="spacing" textLength="523" x="2813" y="830.1528">&#37325;&#26500;&#21442;&#25968;&#35843;&#29992;com.taobao.economy.core.serivce.PointSystemWriteService.addPoint</text><line style="stroke:#181818;stroke-width:1.0;" x1="2784" x2="2826" y1="877.3516" y2="877.3516"/><line style="stroke:#181818;stroke-width:1.0;" x1="2826" x2="2826" y1="877.3516" y2="890.3516"/><line style="stroke:#181818;stroke-width:1.0;" x1="2785" x2="2826" y1="890.3516" y2="890.3516"/><polygon fill="#181818" points="2795,886.3516,2785,890.3516,2795,894.3516,2791,890.3516" style="stroke:#181818;stroke-width:1.0;"/><text fill="#000000" font-family="sans-serif" font-size="13" font-weight="bold" lengthAdjust="spacing" textLength="18" x="2791" y="872.2856">23</text><text fill="#000000" font-family="sans-serif" font-size="13" lengthAdjust="spacing" textLength="492" x="2813" y="872.2856">&#33509;&#23567;&#32418;&#33457;&#21457;&#25918;&#22833;&#36133;&#65292;&#25243;&#20986;("FAIL_BIZ_POINT_SYSTEM_ERROR", "&#21322;&#20004;&#31215;&#20998;&#35843;&#29992;&#22833;&#36133;")</text><polygon fill="#181818" points="1862,915.4844,1852,919.4844,1862,923.4844,1858,919.4844" style="stroke:#181818;stroke-width:1.0;"/><line style="stroke:#181818;stroke-width:1.0;" x1="1856" x2="2783" y1="919.4844" y2="919.4844"/><text fill="#000000" font-family="sans-serif" font-size="13" font-weight="bold" lengthAdjust="spacing" textLength="18" x="1868" y="914.4185">24</text><text fill="#000000" font-family="sans-serif" font-size="13" lengthAdjust="spacing" textLength="661" x="1890" y="914.4185">&#36820;&#22238;&#32467;&#26524;realSuccess&#26159;&#21542;&#30495;&#30340;&#35843;&#29992;&#25104;&#21151;&#12289;hid&#12289;operationAmount&#25805;&#20316;&#30340;&#23567;&#32418;&#33457;&#25968;&#37327;&#12289;amount&#21464;&#26356;&#21518;&#23567;&#32418;&#33457;&#24635;&#25968;</text><polygon fill="#181818" points="1114,944.6172,1104,948.6172,1114,952.6172,1110,948.6172" style="stroke:#181818;stroke-width:1.0;"/><line style="stroke:#181818;stroke-width:1.0;" x1="1108" x2="1850" y1="948.6172" y2="948.6172"/><text fill="#000000" font-family="sans-serif" font-size="13" font-weight="bold" lengthAdjust="spacing" textLength="18" x="1120" y="943.5513">25</text><text fill="#000000" font-family="sans-serif" font-size="13" lengthAdjust="spacing" textLength="315" x="1142" y="943.5513">&#36820;&#22238;&#36830;&#32493;&#31614;&#21040;&#20219;&#21153;&#25512;&#36827;&#32467;&#26524;signInTaskTriggerRes&#65306;t/f</text><polygon fill="#181818" points="579,973.75,569,977.75,579,981.75,575,977.75" style="stroke:#181818;stroke-width:1.0;"/><line style="stroke:#181818;stroke-width:1.0;" x1="573" x2="1102" y1="977.75" y2="977.75"/><text fill="#000000" font-family="sans-serif" font-size="13" font-weight="bold" lengthAdjust="spacing" textLength="18" x="585" y="972.6841">26</text><text fill="#000000" font-family="sans-serif" font-size="13" lengthAdjust="spacing" textLength="407" x="607" y="972.6841">&#36820;&#22238;&#26085;&#21382;&#31614;&#21040;&#32467;&#26524;result = monthSignRes&amp;&amp;signInTaskTriggerRes</text><line style="stroke:#181818;stroke-width:1.0;" x1="568" x2="610" y1="1006.8828" y2="1006.8828"/><line style="stroke:#181818;stroke-width:1.0;" x1="610" x2="610" y1="1006.8828" y2="1019.8828"/><line style="stroke:#181818;stroke-width:1.0;" x1="569" x2="610" y1="1019.8828" y2="1019.8828"/><polygon fill="#181818" points="579,1015.8828,569,1019.8828,579,1023.8828,575,1019.8828" style="stroke:#181818;stroke-width:1.0;"/><text fill="#000000" font-family="sans-serif" font-size="13" font-weight="bold" lengthAdjust="spacing" textLength="18" x="575" y="1001.8169">27</text><text fill="#000000" font-family="sans-serif" font-size="13" lengthAdjust="spacing" textLength="499" x="597" y="1001.8169">result=true----&#20889;&#20837;tair&#32531;&#23384;(k,v,TTL) = (userSignInKey,"true",3600 * 24 * 7 * 31)</text><polygon fill="#181818" points="37,1045.0156,27,1049.0156,37,1053.0156,33,1049.0156" style="stroke:#181818;stroke-width:1.0;"/><line style="stroke:#181818;stroke-width:1.0;" x1="31" x2="567" y1="1049.0156" y2="1049.0156"/><text fill="#000000" font-family="sans-serif" font-size="13" font-weight="bold" lengthAdjust="spacing" textLength="18" x="43" y="1043.9497">28</text><text fill="#000000" font-family="sans-serif" font-size="13" lengthAdjust="spacing" textLength="246" x="65" y="1043.9497">&#22238;&#20256;&#31614;&#21040;&#32467;&#26524;signInSuccess = result(t/f)</text></g></svg>